<svg xmlns="http://www.w3.org/2000/svg" viewBox="0 0 32 32" xml:space="preserve" enable-background="new 0 0 32 32"><path d="M4.9 22.3c-.5.7-.9 1.3-1.4 1.9M15.8 5.2c-.7.1-1.4.2-2.1.4-.7.2-1.4.6-2 .9-.6.5-1.2.9-1.8 1.4-.6.6-1.1 1.3-1.6 2-.8 1.4-1.3 3-1.4 4.7v.6c0 1.7-.4 3.4-1 4.9M26.3 16.1c.1-.4.1-.8.1-1.3 0-.4 0-.9-.1-1.3-.3-2.1-1.3-4.1-2.9-5.6-.8-.8-1.7-1.4-2.8-1.9-.8-.4-1.7-.6-2.6-.7M22.8 29.8c.5-1 1-2.1 1.4-3.1.5-1.2.9-2.5 1.2-3.7.3-1.2.5-2.4.7-3.6" fill="none" stroke="#009694" stroke-linecap="round" stroke-linejoin="round" stroke-miterlimit="10" class="stroke-000000"></path><path d="M26 7.6c.2.2.3.5.5.7.4.5.7 1.1.9 1.7.1.1.1.2.2.3l.6 1.8c0 .2.1.3.1.5.1.5.2 1.1.2 1.6v1.2c0 2.9-.4 5.8-1.2 8.5-.4 1.4-.9 2.8-1.4 4.2M10.7 4.7c.6-.4 1.3-.7 2-.9s1.4-.4 2.1-.5c.6-.2 1.3-.3 1.9-.3h.4c.9 0 1.7.2 2.6.4 1 .3 1.9.6 2.8 1.1M2.3 22.2c.5-.7 1-1.4 1.4-2.2.7-1.5 1.2-3.3 1.2-5.1s.4-3.6 1.2-5.1c.3-.8.8-1.6 1.3-2.2M7.8 25.6c-.4.6-.9 1.1-1.4 1.7M15.1 9.8c-.8.2-1.5.6-2 1.2-1.1 1-1.8 2.4-1.8 4s-.2 3.1-.6 4.6c-.2.8-.5 1.6-.8 2.4M22 15.3v-1c-.2-1.7-1.1-3.3-2.6-4.1M17.1 31c.5-.7.9-1.5 1.4-2.3l1.2-2.4c.4-.9.7-1.7 1-2.6.3-1 .6-2 .8-3 .1-.7.3-1.4.4-2.1M21.3 28.1c-.4.9-.9 1.8-1.4 2.6M24.1 13.7c0 .3.1.5.1.8V16c-.1 2-.3 4-.8 5.9-.3 1.2-.6 2.3-1 3.4M16.7 7.3c.8 0 1.5.1 2.2.3.9.3 1.8.8 2.6 1.4.2.2.4.3.5.5l.2.2c.2.2.3.3.4.5.2.2.3.4.4.6h0" fill="none" stroke="#009694" stroke-linecap="round" stroke-linejoin="round" stroke-miterlimit="10" class="stroke-000000"></path><path d="M8.4 19.8c.5-1.6.8-3.2.8-4.9s.6-3.3 1.6-4.6c.5-.6 1.1-1.2 1.8-1.7.6-.4 1.3-.7 2-1M4.8 25.8c.5-.5.9-1.1 1.4-1.7.4-.6.8-1.3 1.2-1.9M30.7 14.2v2.4c0 .4 0 .8-.1 1.2 0 .5-.1.9-.1 1.4v.5c0 .3-.1.6-.1.9v.3c0 .3-.1.5-.2.8s-.1.6-.2 1c-.1.3-.1.6-.2 1l-.3 1.2M18.5 1c1 .1 1.9.4 2.8.7 1 .3 2 .8 2.9 1.4 1.2.8 2.3 1.7 3.2 2.8.2.3.5.6.7.9v.1c.2.3.4.5.5.8 0 .1.1.1.1.2.2.2.3.5.4.8M3.7 9.8c.3-.9.7-1.6 1.2-2.4.4-.6.9-1.2 1.4-1.8.5-.5 1-1.1 1.6-1.5.5-.5 1.2-.9 1.8-1.2.6-.4 1.3-.7 2-1s1.4-.5 2.1-.6M1.3 19.8c.9-1.5 1.4-3.1 1.4-5M12.5 21.1c-.2.7-.5 1.4-.8 2-.3.7-.6 1.3-1 1.9l-1.2 1.8c-.4.6-.9 1.2-1.4 1.7M19.9 14.2c-.2-1.2-1.1-2.1-2.3-2.4-.3-.1-.6-.1-.9-.1-.4 0-.8.1-1.2.2-1.2.5-2 1.6-2 3 0 .6 0 1.1-.1 1.7M14.6 30.9c.5-.7.9-1.3 1.4-2l1.2-2.1c.4-.7.7-1.5 1-2.3s.5-1.6.8-2.4c.2-.9.4-1.7.6-2.6.1-.8.2-1.6.3-2.5M16.6 22.4c-.2.7-.5 1.4-.8 2.1s-.6 1.4-1 2c-.4.7-.8 1.3-1.2 2-.4.6-.9 1.3-1.4 1.9" fill="none" stroke="#009694" stroke-linecap="round" stroke-linejoin="round" stroke-miterlimit="10" class="stroke-000000"></path><path d="m14.5 22.1.6-2.1c.2-.7.3-1.4.4-2.1.1-.9.2-1.7.2-2.6v-.4c0-.1 0-.5.1-.5.2-.3.5-.5.9-.5.6 0 1.1.5 1.1 1.1 0 1-.1 2.1-.2 3.1M10.2 29.7c.5-.6.9-1.2 1.4-1.8.4-.6.8-1.2 1.2-1.9" fill="none" stroke="#009694" stroke-linecap="round" stroke-linejoin="round" stroke-miterlimit="10" class="stroke-000000"></path></svg>
